<svg width="776" height="269" viewBox="0 0 776 269" fill="none" xmlns="http://www.w3.org/2000/svg">
<g clip-path="url(#clip0_23_509)">
<path d="M75.509 221.925H770.192" stroke="black"/>
<path d="M75.509 229.995V221.925" stroke="black"/>
<path d="M78.1984 236.05V237.351C78.1984 238.05 78.1359 238.64 78.0109 239.12C77.8859 239.601 77.7062 239.987 77.4719 240.28C77.2375 240.573 76.9543 240.786 76.6223 240.919C76.2941 241.048 75.923 241.112 75.509 241.112C75.1809 241.112 74.8781 241.071 74.6008 240.989C74.3234 240.907 74.0734 240.776 73.8508 240.597C73.632 240.413 73.4445 240.175 73.2883 239.882C73.132 239.589 73.0129 239.233 72.9309 238.815C72.8488 238.397 72.8078 237.909 72.8078 237.351V236.05C72.8078 235.351 72.8703 234.765 72.9953 234.292C73.1242 233.819 73.3059 233.44 73.5402 233.155C73.7746 232.866 74.0559 232.659 74.384 232.534C74.716 232.409 75.0871 232.347 75.4973 232.347C75.8293 232.347 76.134 232.388 76.4113 232.47C76.6926 232.548 76.9426 232.675 77.1613 232.851C77.3801 233.022 77.5656 233.253 77.718 233.542C77.8742 233.827 77.9934 234.177 78.0754 234.591C78.1574 235.005 78.1984 235.491 78.1984 236.05ZM77.1086 237.526V235.868C77.1086 235.485 77.0852 235.149 77.0383 234.86C76.9953 234.567 76.9309 234.317 76.8449 234.11C76.759 233.903 76.6496 233.735 76.5168 233.606C76.3879 233.478 76.2375 233.384 76.0656 233.325C75.8977 233.263 75.7082 233.231 75.4973 233.231C75.2395 233.231 75.0109 233.28 74.8117 233.378C74.6125 233.472 74.4445 233.622 74.3078 233.829C74.175 234.036 74.0734 234.308 74.0031 234.644C73.9328 234.979 73.8977 235.388 73.8977 235.868V237.526C73.8977 237.909 73.9191 238.247 73.9621 238.54C74.009 238.833 74.0773 239.087 74.1672 239.302C74.257 239.513 74.3664 239.687 74.4953 239.823C74.6242 239.96 74.7727 240.062 74.9406 240.128C75.1125 240.19 75.302 240.222 75.509 240.222C75.7746 240.222 76.007 240.171 76.2062 240.069C76.4055 239.968 76.5715 239.81 76.7043 239.595C76.841 239.376 76.9426 239.097 77.009 238.757C77.0754 238.413 77.1086 238.003 77.1086 237.526Z" fill="black"/>
<path d="M152.696 229.995V221.925" stroke="black"/>
<path d="M153.592 232.417V240.995H152.508V233.771L150.323 234.567V233.589L153.423 232.417H153.592Z" fill="black"/>
<path d="M229.883 229.995V221.925" stroke="black"/>
<path d="M232.807 240.104V240.995H227.223V240.216L230.018 237.104C230.361 236.722 230.627 236.397 230.815 236.132C231.006 235.862 231.139 235.622 231.213 235.411C231.291 235.196 231.33 234.978 231.33 234.755C231.33 234.474 231.272 234.22 231.154 233.993C231.041 233.763 230.873 233.579 230.65 233.442C230.428 233.306 230.158 233.237 229.842 233.237C229.463 233.237 229.147 233.312 228.893 233.46C228.643 233.604 228.455 233.808 228.33 234.069C228.205 234.331 228.143 234.632 228.143 234.972H227.059C227.059 234.491 227.164 234.052 227.375 233.653C227.586 233.255 227.899 232.938 228.313 232.704C228.727 232.466 229.236 232.347 229.842 232.347C230.381 232.347 230.842 232.442 231.225 232.634C231.608 232.821 231.9 233.087 232.104 233.431C232.311 233.771 232.414 234.169 232.414 234.626C232.414 234.876 232.371 235.13 232.285 235.388C232.203 235.642 232.088 235.896 231.94 236.149C231.795 236.403 231.625 236.653 231.43 236.899C231.238 237.146 231.033 237.388 230.815 237.626L228.529 240.104H232.807Z" fill="black"/>
<path d="M307.07 229.995V221.925" stroke="black"/>
<path d="M305.986 236.196H306.759C307.138 236.196 307.451 236.134 307.697 236.009C307.947 235.88 308.132 235.706 308.253 235.487C308.378 235.265 308.441 235.015 308.441 234.737C308.441 234.409 308.386 234.134 308.277 233.911C308.168 233.688 308.003 233.521 307.785 233.407C307.566 233.294 307.289 233.237 306.953 233.237C306.648 233.237 306.378 233.298 306.144 233.419C305.914 233.536 305.732 233.704 305.599 233.923C305.47 234.142 305.406 234.399 305.406 234.696H304.322C304.322 234.263 304.431 233.868 304.65 233.513C304.869 233.157 305.175 232.874 305.57 232.663C305.968 232.452 306.429 232.347 306.953 232.347C307.468 232.347 307.919 232.438 308.306 232.622C308.693 232.802 308.994 233.071 309.209 233.431C309.423 233.786 309.531 234.229 309.531 234.761C309.531 234.976 309.48 235.206 309.378 235.452C309.281 235.694 309.126 235.921 308.916 236.132C308.709 236.343 308.439 236.517 308.107 236.653C307.775 236.786 307.376 236.853 306.912 236.853H305.986V236.196ZM305.986 237.087V236.437H306.912C307.455 236.437 307.904 236.501 308.259 236.63C308.615 236.759 308.894 236.931 309.097 237.146C309.304 237.36 309.449 237.597 309.531 237.854C309.617 238.108 309.66 238.362 309.66 238.616C309.66 239.015 309.591 239.368 309.455 239.677C309.322 239.985 309.132 240.247 308.886 240.462C308.644 240.677 308.359 240.839 308.031 240.948C307.703 241.058 307.345 241.112 306.959 241.112C306.587 241.112 306.238 241.06 305.91 240.954C305.585 240.849 305.298 240.696 305.048 240.497C304.798 240.294 304.603 240.046 304.462 239.753C304.322 239.456 304.251 239.118 304.251 238.739H305.335C305.335 239.036 305.4 239.296 305.529 239.519C305.662 239.741 305.849 239.915 306.091 240.04C306.337 240.161 306.626 240.222 306.959 240.222C307.291 240.222 307.576 240.165 307.814 240.052C308.056 239.935 308.242 239.759 308.371 239.524C308.503 239.29 308.57 238.995 308.57 238.64C308.57 238.284 308.496 237.993 308.347 237.767C308.199 237.536 307.988 237.366 307.714 237.257C307.445 237.144 307.126 237.087 306.759 237.087H305.986Z" fill="black"/>
<path d="M384.257 229.995V221.925" stroke="black"/>
<path d="M387.356 238.124V239.015H381.192V238.376L385.013 232.464H385.897L384.948 234.175L382.423 238.124H387.356ZM386.167 232.464V240.995H385.083V232.464H386.167Z" fill="black"/>
<path d="M461.444 229.995V221.925" stroke="black"/>
<path d="M460.149 236.935L459.282 236.712L459.709 232.464H464.086V233.466H460.629L460.371 235.786C460.528 235.696 460.725 235.612 460.963 235.534C461.205 235.456 461.483 235.417 461.795 235.417C462.19 235.417 462.543 235.485 462.856 235.622C463.168 235.755 463.434 235.946 463.653 236.196C463.875 236.446 464.045 236.747 464.163 237.099C464.28 237.45 464.338 237.843 464.338 238.276C464.338 238.687 464.282 239.063 464.168 239.407C464.059 239.751 463.893 240.052 463.67 240.31C463.448 240.563 463.166 240.761 462.827 240.901C462.491 241.042 462.094 241.112 461.637 241.112C461.293 241.112 460.967 241.065 460.659 240.972C460.354 240.874 460.08 240.728 459.838 240.532C459.6 240.333 459.405 240.087 459.252 239.794C459.104 239.497 459.01 239.149 458.971 238.751H460.002C460.049 239.071 460.143 239.341 460.284 239.56C460.424 239.778 460.608 239.944 460.834 240.058C461.065 240.167 461.332 240.222 461.637 240.222C461.895 240.222 462.123 240.177 462.323 240.087C462.522 239.997 462.69 239.868 462.827 239.7C462.963 239.532 463.067 239.329 463.137 239.091C463.211 238.853 463.248 238.585 463.248 238.288C463.248 238.019 463.211 237.769 463.137 237.538C463.063 237.308 462.952 237.106 462.803 236.935C462.659 236.763 462.481 236.63 462.27 236.536C462.059 236.438 461.817 236.39 461.543 236.39C461.18 236.39 460.905 236.438 460.717 236.536C460.534 236.634 460.344 236.767 460.149 236.935Z" fill="black"/>
<path d="M538.631 229.995V221.925" stroke="black"/>
<path d="M540.125 232.452H540.219V233.372H540.125C539.551 233.372 539.07 233.466 538.683 233.653C538.297 233.837 537.99 234.085 537.764 234.397C537.537 234.706 537.373 235.054 537.271 235.44C537.174 235.827 537.125 236.22 537.125 236.618V237.872C537.125 238.251 537.17 238.587 537.26 238.88C537.349 239.169 537.473 239.413 537.629 239.612C537.785 239.812 537.961 239.962 538.156 240.063C538.355 240.165 538.562 240.216 538.777 240.216C539.027 240.216 539.25 240.169 539.445 240.075C539.64 239.978 539.805 239.843 539.937 239.671C540.074 239.495 540.178 239.288 540.248 239.05C540.318 238.812 540.353 238.55 540.353 238.265C540.353 238.011 540.322 237.767 540.26 237.532C540.197 237.294 540.101 237.083 539.973 236.899C539.844 236.712 539.681 236.565 539.486 236.46C539.295 236.351 539.066 236.296 538.801 236.296C538.5 236.296 538.219 236.37 537.957 236.519C537.699 236.663 537.486 236.854 537.318 237.093C537.154 237.327 537.06 237.583 537.037 237.86L536.463 237.854C536.517 237.417 536.619 237.044 536.767 236.735C536.92 236.423 537.107 236.169 537.33 235.974C537.556 235.774 537.808 235.63 538.086 235.54C538.367 235.446 538.664 235.399 538.976 235.399C539.402 235.399 539.769 235.479 540.078 235.64C540.387 235.8 540.64 236.015 540.84 236.284C541.039 236.55 541.185 236.851 541.279 237.187C541.377 237.519 541.426 237.86 541.426 238.212C541.426 238.614 541.369 238.991 541.256 239.343C541.142 239.694 540.973 240.003 540.746 240.269C540.523 240.534 540.248 240.741 539.92 240.89C539.592 241.038 539.211 241.112 538.777 241.112C538.316 241.112 537.914 241.019 537.57 240.831C537.226 240.64 536.941 240.386 536.715 240.069C536.488 239.753 536.318 239.401 536.205 239.015C536.092 238.628 536.035 238.235 536.035 237.837V237.327C536.035 236.726 536.096 236.136 536.217 235.558C536.338 234.979 536.547 234.456 536.844 233.987C537.144 233.519 537.56 233.146 538.092 232.868C538.623 232.591 539.301 232.452 540.125 232.452Z" fill="black"/>
<path d="M615.818 229.995V221.925" stroke="black"/>
<path d="M618.665 232.464V233.073L615.132 240.995H613.99L617.517 233.354H612.9V232.464H618.665Z" fill="black"/>
<path d="M693.005 229.995V221.925" stroke="black"/>
<path d="M695.717 238.687C695.717 239.206 695.596 239.647 695.354 240.011C695.116 240.37 694.792 240.644 694.382 240.831C693.975 241.019 693.516 241.112 693.005 241.112C692.493 241.112 692.032 241.019 691.622 240.831C691.212 240.644 690.887 240.37 690.649 240.011C690.411 239.647 690.292 239.206 690.292 238.687C690.292 238.347 690.356 238.036 690.485 237.755C690.618 237.47 690.803 237.222 691.042 237.011C691.284 236.8 691.569 236.638 691.897 236.524C692.229 236.407 692.594 236.349 692.993 236.349C693.516 236.349 693.983 236.45 694.393 236.653C694.803 236.853 695.126 237.128 695.36 237.479C695.598 237.831 695.717 238.233 695.717 238.687ZM694.628 238.663C694.628 238.347 694.559 238.067 694.423 237.825C694.286 237.579 694.094 237.388 693.848 237.251C693.602 237.114 693.317 237.046 692.993 237.046C692.661 237.046 692.374 237.114 692.132 237.251C691.893 237.388 691.708 237.579 691.575 237.825C691.442 238.067 691.376 238.347 691.376 238.663C691.376 238.991 691.44 239.272 691.569 239.507C691.702 239.737 691.889 239.915 692.132 240.04C692.378 240.161 692.669 240.222 693.005 240.222C693.34 240.222 693.63 240.161 693.872 240.04C694.114 239.915 694.299 239.737 694.428 239.507C694.561 239.272 694.628 238.991 694.628 238.663ZM695.518 234.685C695.518 235.099 695.409 235.472 695.19 235.804C694.971 236.136 694.673 236.397 694.294 236.589C693.915 236.78 693.485 236.876 693.005 236.876C692.516 236.876 692.081 236.78 691.698 236.589C691.319 236.397 691.022 236.136 690.807 235.804C690.592 235.472 690.485 235.099 690.485 234.685C690.485 234.188 690.592 233.767 690.807 233.419C691.026 233.071 691.325 232.806 691.704 232.622C692.083 232.438 692.514 232.347 692.999 232.347C693.487 232.347 693.921 232.438 694.299 232.622C694.678 232.806 694.975 233.071 695.19 233.419C695.409 233.767 695.518 234.188 695.518 234.685ZM694.434 234.702C694.434 234.417 694.374 234.165 694.253 233.946C694.132 233.728 693.964 233.556 693.749 233.431C693.534 233.302 693.284 233.237 692.999 233.237C692.714 233.237 692.464 233.298 692.249 233.419C692.038 233.536 691.872 233.704 691.751 233.923C691.633 234.142 691.575 234.401 691.575 234.702C691.575 234.995 691.633 235.251 691.751 235.47C691.872 235.688 692.04 235.858 692.255 235.979C692.469 236.101 692.719 236.161 693.005 236.161C693.29 236.161 693.538 236.101 693.749 235.979C693.964 235.858 694.132 235.688 694.253 235.47C694.374 235.251 694.434 234.995 694.434 234.702Z" fill="black"/>
<path d="M770.192 229.995V221.925" stroke="black"/>
<path d="M768.604 240.087H768.715C769.34 240.087 769.848 239.999 770.239 239.823C770.629 239.647 770.93 239.411 771.141 239.114C771.352 238.817 771.496 238.483 771.575 238.112C771.653 237.737 771.692 237.353 771.692 236.958V235.651C771.692 235.265 771.647 234.921 771.557 234.62C771.471 234.319 771.35 234.067 771.194 233.864C771.041 233.661 770.868 233.507 770.672 233.401C770.477 233.296 770.27 233.243 770.051 233.243C769.801 233.243 769.577 233.294 769.377 233.396C769.182 233.493 769.016 233.632 768.879 233.812C768.746 233.991 768.645 234.202 768.575 234.444C768.504 234.687 768.469 234.95 768.469 235.235C768.469 235.489 768.5 235.735 768.563 235.974C768.625 236.212 768.721 236.427 768.85 236.618C768.979 236.81 769.139 236.962 769.33 237.075C769.526 237.185 769.754 237.239 770.016 237.239C770.258 237.239 770.485 237.192 770.696 237.099C770.91 237.001 771.1 236.87 771.264 236.706C771.432 236.538 771.565 236.349 771.662 236.138C771.764 235.927 771.823 235.706 771.838 235.476H772.354C772.354 235.8 772.289 236.12 772.16 236.437C772.035 236.749 771.86 237.034 771.633 237.292C771.407 237.55 771.141 237.757 770.836 237.913C770.532 238.065 770.2 238.142 769.84 238.142C769.418 238.142 769.053 238.06 768.744 237.896C768.436 237.731 768.182 237.513 767.983 237.239C767.787 236.966 767.641 236.661 767.543 236.325C767.45 235.985 767.403 235.642 767.403 235.294C767.403 234.888 767.459 234.507 767.573 234.151C767.686 233.796 767.854 233.483 768.077 233.214C768.299 232.94 768.575 232.728 768.903 232.575C769.235 232.423 769.618 232.347 770.051 232.347C770.539 232.347 770.955 232.444 771.299 232.64C771.643 232.835 771.922 233.097 772.137 233.425C772.356 233.753 772.516 234.122 772.618 234.532C772.719 234.942 772.77 235.364 772.77 235.798V236.19C772.77 236.632 772.741 237.081 772.682 237.538C772.627 237.991 772.52 238.425 772.36 238.839C772.203 239.253 771.975 239.624 771.674 239.952C771.373 240.276 770.981 240.534 770.496 240.726C770.016 240.913 769.422 241.007 768.715 241.007H768.604V240.087Z" fill="black"/>
<path d="M75.509 6.7251V221.925" stroke="black"/>
<path d="M68.5389 221.925H75.509" stroke="black"/>
<path d="M62.045 211.84V213.141C62.045 213.84 61.9825 214.43 61.8575 214.91C61.7325 215.391 61.5528 215.777 61.3184 216.07C61.0841 216.363 60.8009 216.576 60.4688 216.709C60.1407 216.838 59.7696 216.902 59.3555 216.902C59.0274 216.902 58.7247 216.861 58.4473 216.779C58.17 216.697 57.92 216.566 57.6973 216.387C57.4786 216.203 57.2911 215.965 57.1348 215.672C56.9786 215.379 56.8595 215.023 56.7774 214.605C56.6954 214.188 56.6544 213.699 56.6544 213.141V211.84C56.6544 211.141 56.7169 210.555 56.8419 210.082C56.9708 209.609 57.1524 209.23 57.3868 208.945C57.6212 208.656 57.9024 208.449 58.2305 208.324C58.5626 208.199 58.9337 208.137 59.3438 208.137C59.6759 208.137 59.9805 208.178 60.2579 208.26C60.5391 208.338 60.7891 208.465 61.0079 208.641C61.2266 208.812 61.4122 209.043 61.5645 209.332C61.7208 209.617 61.8399 209.967 61.922 210.381C62.004 210.795 62.045 211.281 62.045 211.84ZM60.9552 213.316V211.658C60.9552 211.275 60.9317 210.939 60.8848 210.65C60.8419 210.357 60.7774 210.107 60.6915 209.9C60.6055 209.693 60.4962 209.525 60.3634 209.396C60.2345 209.268 60.0841 209.174 59.9122 209.115C59.7442 209.053 59.5548 209.021 59.3438 209.021C59.086 209.021 58.8575 209.07 58.6583 209.168C58.4591 209.262 58.2911 209.412 58.1544 209.619C58.0216 209.826 57.92 210.098 57.8497 210.434C57.7794 210.77 57.7442 211.178 57.7442 211.658V213.316C57.7442 213.699 57.7657 214.037 57.8087 214.33C57.8555 214.623 57.9239 214.877 58.0138 215.092C58.1036 215.303 58.213 215.477 58.3419 215.613C58.4708 215.75 58.6192 215.852 58.7872 215.918C58.9591 215.98 59.1485 216.012 59.3555 216.012C59.6212 216.012 59.8536 215.961 60.0528 215.859C60.252 215.758 60.418 215.6 60.5509 215.385C60.6876 215.166 60.7891 214.887 60.8555 214.547C60.922 214.203 60.9552 213.793 60.9552 213.316Z" fill="black"/>
<path d="M68.5389 168.125H75.509" stroke="black"/>
<path d="M48.7794 162.094V162.985H43.1954V162.206L45.9903 159.094C46.334 158.712 46.5997 158.387 46.7872 158.122C46.9786 157.852 47.1114 157.612 47.1856 157.401C47.2637 157.186 47.3028 156.968 47.3028 156.745C47.3028 156.464 47.2442 156.21 47.127 155.983C47.0137 155.753 46.8458 155.569 46.6231 155.432C46.4005 155.296 46.1309 155.227 45.8145 155.227C45.4356 155.227 45.1192 155.302 44.8653 155.45C44.6153 155.594 44.4278 155.798 44.3028 156.059C44.1778 156.321 44.1153 156.622 44.1153 156.962H43.0313C43.0313 156.481 43.1368 156.042 43.3477 155.643C43.5587 155.245 43.8712 154.928 44.2852 154.694C44.6993 154.456 45.209 154.337 45.8145 154.337C46.3536 154.337 46.8145 154.432 47.1973 154.624C47.5801 154.811 47.8731 155.077 48.0762 155.421C48.2833 155.76 48.3868 156.159 48.3868 156.616C48.3868 156.866 48.3438 157.12 48.2579 157.378C48.1758 157.632 48.0606 157.885 47.9122 158.139C47.7676 158.393 47.5977 158.643 47.4024 158.889C47.211 159.135 47.0059 159.378 46.7872 159.616L44.502 162.094H48.7794ZM51.3106 158.925L50.4434 158.702L50.8712 154.454H55.2481V155.456H51.7911L51.5333 157.776C51.6895 157.686 51.8868 157.602 52.1251 157.524C52.3673 157.446 52.6446 157.407 52.9571 157.407C53.3516 157.407 53.7051 157.475 54.0176 157.612C54.3301 157.745 54.5958 157.936 54.8145 158.186C55.0372 158.436 55.2071 158.737 55.3243 159.089C55.4415 159.44 55.5001 159.833 55.5001 160.266C55.5001 160.677 55.4434 161.053 55.3301 161.397C55.2208 161.741 55.0548 162.042 54.8321 162.3C54.6094 162.553 54.3282 162.751 53.9883 162.891C53.6524 163.032 53.2559 163.102 52.7989 163.102C52.4551 163.102 52.129 163.055 51.8204 162.962C51.5157 162.864 51.2423 162.718 51.0001 162.522C50.7618 162.323 50.5665 162.077 50.4141 161.784C50.2657 161.487 50.1719 161.139 50.1329 160.741H51.1641C51.211 161.061 51.3048 161.331 51.4454 161.55C51.586 161.768 51.7696 161.934 51.9962 162.048C52.2266 162.157 52.4942 162.212 52.7989 162.212C53.0567 162.212 53.2852 162.167 53.4844 162.077C53.6837 161.987 53.8516 161.858 53.9883 161.69C54.1251 161.522 54.2286 161.319 54.2989 161.081C54.3731 160.843 54.4102 160.575 54.4102 160.278C54.4102 160.009 54.3731 159.759 54.2989 159.528C54.2247 159.298 54.1133 159.096 53.9649 158.925C53.8204 158.753 53.6426 158.62 53.4317 158.526C53.2208 158.428 52.9786 158.38 52.7051 158.38C52.3419 158.38 52.0665 158.428 51.879 158.526C51.6954 158.624 51.5059 158.757 51.3106 158.925ZM62.045 158.04V159.341C62.045 160.04 61.9825 160.63 61.8575 161.11C61.7325 161.591 61.5528 161.977 61.3184 162.27C61.084 162.563 60.8008 162.776 60.4688 162.909C60.1407 163.038 59.7696 163.102 59.3555 163.102C59.0274 163.102 58.7247 163.061 58.4473 162.979C58.17 162.897 57.92 162.766 57.6973 162.587C57.4786 162.403 57.2911 162.165 57.1348 161.872C56.9786 161.579 56.8594 161.223 56.7774 160.805C56.6954 160.387 56.6544 159.899 56.6544 159.341V158.04C56.6544 157.341 56.7169 156.755 56.8419 156.282C56.9708 155.809 57.1524 155.43 57.3868 155.145C57.6212 154.856 57.9024 154.649 58.2305 154.524C58.5626 154.399 58.9337 154.337 59.3438 154.337C59.6758 154.337 59.9805 154.378 60.2579 154.46C60.5391 154.538 60.7891 154.665 61.0079 154.841C61.2266 155.012 61.4122 155.243 61.5645 155.532C61.7208 155.817 61.8399 156.167 61.9219 156.581C62.004 156.995 62.045 157.481 62.045 158.04ZM60.9551 159.516V157.858C60.9551 157.475 60.9317 157.139 60.8848 156.85C60.8419 156.557 60.7774 156.307 60.6915 156.1C60.6055 155.893 60.4962 155.725 60.3633 155.596C60.2344 155.468 60.084 155.374 59.9122 155.315C59.7442 155.253 59.5548 155.221 59.3438 155.221C59.086 155.221 58.8575 155.27 58.6583 155.368C58.459 155.462 58.2911 155.612 58.1544 155.819C58.0215 156.026 57.92 156.298 57.8497 156.634C57.7794 156.969 57.7442 157.378 57.7442 157.858V159.516C57.7442 159.899 57.7657 160.237 57.8087 160.53C57.8555 160.823 57.9239 161.077 58.0137 161.292C58.1036 161.503 58.213 161.677 58.3419 161.813C58.4708 161.95 58.6192 162.052 58.7872 162.118C58.959 162.18 59.1485 162.212 59.3555 162.212C59.6212 162.212 59.8536 162.161 60.0528 162.059C60.252 161.958 60.418 161.8 60.5508 161.585C60.6876 161.366 60.7891 161.087 60.8555 160.747C60.9219 160.403 60.9551 159.993 60.9551 159.516Z" fill="black"/>
<path d="M68.5389 114.325H75.509" stroke="black"/>
<path d="M44.5606 105.125L43.6934 104.902L44.1212 100.654H48.4981V101.656H45.0411L44.7833 103.976C44.9395 103.886 45.1368 103.802 45.3751 103.724C45.6173 103.646 45.8946 103.607 46.2071 103.607C46.6016 103.607 46.9551 103.675 47.2676 103.812C47.5801 103.945 47.8458 104.136 48.0645 104.386C48.2872 104.636 48.4571 104.937 48.5743 105.289C48.6915 105.64 48.7501 106.033 48.7501 106.466C48.7501 106.876 48.6934 107.253 48.5801 107.597C48.4708 107.941 48.3048 108.242 48.0821 108.5C47.8594 108.753 47.5782 108.951 47.2383 109.091C46.9024 109.232 46.5059 109.302 46.0489 109.302C45.7051 109.302 45.379 109.255 45.0704 109.162C44.7657 109.064 44.4923 108.917 44.2501 108.722C44.0118 108.523 43.8165 108.277 43.6641 107.984C43.5157 107.687 43.4219 107.339 43.3829 106.941H44.4141C44.461 107.261 44.5548 107.531 44.6954 107.75C44.836 107.968 45.0196 108.134 45.2462 108.248C45.4766 108.357 45.7442 108.412 46.0489 108.412C46.3067 108.412 46.5352 108.367 46.7344 108.277C46.9337 108.187 47.1016 108.058 47.2383 107.89C47.3751 107.722 47.4786 107.519 47.5489 107.281C47.6231 107.042 47.6602 106.775 47.6602 106.478C47.6602 106.208 47.6231 105.958 47.5489 105.728C47.4747 105.498 47.3633 105.296 47.2149 105.125C47.0704 104.953 46.8926 104.82 46.6817 104.726C46.4708 104.628 46.2286 104.58 45.9551 104.58C45.5919 104.58 45.3165 104.628 45.129 104.726C44.9454 104.824 44.7559 104.957 44.5606 105.125ZM55.295 104.24V105.541C55.295 106.24 55.2325 106.83 55.1075 107.31C54.9825 107.791 54.8028 108.177 54.5684 108.47C54.334 108.763 54.0508 108.976 53.7188 109.109C53.3907 109.238 53.0196 109.302 52.6055 109.302C52.2774 109.302 51.9747 109.261 51.6973 109.179C51.42 109.097 51.17 108.966 50.9473 108.787C50.7286 108.603 50.5411 108.365 50.3848 108.072C50.2286 107.779 50.1094 107.423 50.0274 107.005C49.9454 106.587 49.9044 106.099 49.9044 105.541V104.24C49.9044 103.541 49.9669 102.955 50.0919 102.482C50.2208 102.009 50.4024 101.63 50.6368 101.345C50.8712 101.056 51.1524 100.849 51.4805 100.724C51.8126 100.599 52.1837 100.537 52.5938 100.537C52.9258 100.537 53.2305 100.578 53.5079 100.66C53.7891 100.738 54.0391 100.865 54.2579 101.041C54.4766 101.212 54.6622 101.443 54.8145 101.732C54.9708 102.017 55.0899 102.367 55.1719 102.781C55.254 103.195 55.295 103.681 55.295 104.24ZM54.2051 105.716V104.058C54.2051 103.675 54.1817 103.339 54.1348 103.05C54.0919 102.757 54.0274 102.507 53.9415 102.3C53.8555 102.093 53.7462 101.925 53.6133 101.796C53.4844 101.667 53.334 101.574 53.1622 101.515C52.9942 101.453 52.8048 101.421 52.5938 101.421C52.336 101.421 52.1075 101.47 51.9083 101.568C51.709 101.662 51.5411 101.812 51.4044 102.019C51.2715 102.226 51.17 102.498 51.0997 102.833C51.0294 103.169 50.9942 103.578 50.9942 104.058V105.716C50.9942 106.099 51.0157 106.437 51.0587 106.73C51.1055 107.023 51.1739 107.277 51.2637 107.492C51.3536 107.703 51.463 107.876 51.5919 108.013C51.7208 108.15 51.8692 108.251 52.0372 108.318C52.209 108.38 52.3985 108.412 52.6055 108.412C52.8712 108.412 53.1036 108.361 53.3028 108.259C53.502 108.158 53.668 108 53.8008 107.785C53.9376 107.566 54.0391 107.287 54.1055 106.947C54.1719 106.603 54.2051 106.193 54.2051 105.716ZM62.045 104.24V105.541C62.045 106.24 61.9825 106.83 61.8575 107.31C61.7325 107.791 61.5528 108.177 61.3184 108.47C61.084 108.763 60.8008 108.976 60.4688 109.109C60.1407 109.238 59.7696 109.302 59.3555 109.302C59.0274 109.302 58.7247 109.261 58.4473 109.179C58.17 109.097 57.92 108.966 57.6973 108.787C57.4786 108.603 57.2911 108.365 57.1348 108.072C56.9786 107.779 56.8594 107.423 56.7774 107.005C56.6954 106.587 56.6544 106.099 56.6544 105.541V104.24C56.6544 103.541 56.7169 102.955 56.8419 102.482C56.9708 102.009 57.1524 101.63 57.3868 101.345C57.6212 101.056 57.9024 100.849 58.2305 100.724C58.5626 100.599 58.9337 100.537 59.3438 100.537C59.6758 100.537 59.9805 100.578 60.2579 100.66C60.5391 100.738 60.7891 100.865 61.0079 101.041C61.2266 101.212 61.4122 101.443 61.5645 101.732C61.7208 102.017 61.8399 102.367 61.9219 102.781C62.004 103.195 62.045 103.681 62.045 104.24ZM60.9551 105.716V104.058C60.9551 103.675 60.9317 103.339 60.8848 103.05C60.8419 102.757 60.7774 102.507 60.6915 102.3C60.6055 102.093 60.4962 101.925 60.3633 101.796C60.2344 101.667 60.084 101.574 59.9122 101.515C59.7442 101.453 59.5548 101.421 59.3438 101.421C59.086 101.421 58.8575 101.47 58.6583 101.568C58.459 101.662 58.2911 101.812 58.1544 102.019C58.0215 102.226 57.92 102.498 57.8497 102.833C57.7794 103.169 57.7442 103.578 57.7442 104.058V105.716C57.7442 106.099 57.7657 106.437 57.8087 106.73C57.8555 107.023 57.9239 107.277 58.0137 107.492C58.1036 107.703 58.213 107.876 58.3419 108.013C58.4708 108.15 58.6192 108.251 58.7872 108.318C58.959 108.38 59.1485 108.412 59.3555 108.412C59.6212 108.412 59.8536 108.361 60.0528 108.259C60.252 108.158 60.418 108 60.5508 107.785C60.6876 107.566 60.7891 107.287 60.8555 106.947C60.9219 106.603 60.9551 106.193 60.9551 105.716Z" fill="black"/>
<path d="M68.5389 60.5249H75.509" stroke="black"/>
<path d="M48.7032 46.8538V47.4631L45.17 55.385H44.0274L47.5548 47.7444H42.9376V46.8538H48.7032ZM51.3106 51.3245L50.4434 51.1018L50.8712 46.8538H55.2481V47.8557H51.7911L51.5333 50.176C51.6895 50.0862 51.8868 50.0022 52.1251 49.9241C52.3673 49.8459 52.6446 49.8069 52.9571 49.8069C53.3516 49.8069 53.7051 49.8752 54.0176 50.012C54.3301 50.1448 54.5958 50.3362 54.8145 50.5862C55.0372 50.8362 55.2071 51.137 55.3243 51.4885C55.4415 51.8401 55.5001 52.2327 55.5001 52.6663C55.5001 53.0764 55.4434 53.4534 55.3301 53.7971C55.2208 54.1409 55.0548 54.4417 54.8321 54.6995C54.6094 54.9534 54.3282 55.1506 53.9883 55.2913C53.6524 55.4319 53.2559 55.5022 52.7989 55.5022C52.4551 55.5022 52.129 55.4553 51.8204 55.3616C51.5157 55.2639 51.2423 55.1174 51.0001 54.9221C50.7618 54.7229 50.5665 54.4768 50.4141 54.1838C50.2657 53.887 50.1719 53.5393 50.1329 53.1409H51.1641C51.211 53.4612 51.3048 53.7307 51.4454 53.9495C51.586 54.1682 51.7696 54.3342 51.9962 54.4475C52.2266 54.5569 52.4942 54.6116 52.7989 54.6116C53.0567 54.6116 53.2852 54.5667 53.4844 54.4768C53.6837 54.387 53.8516 54.2581 53.9883 54.0901C54.1251 53.9221 54.2286 53.719 54.2989 53.4807C54.3731 53.2424 54.4102 52.9749 54.4102 52.678C54.4102 52.4084 54.3731 52.1584 54.2989 51.928C54.2247 51.6975 54.1133 51.4963 53.9649 51.3245C53.8204 51.1526 53.6426 51.0198 53.4317 50.926C53.2208 50.8284 52.9786 50.7795 52.7051 50.7795C52.3419 50.7795 52.0665 50.8284 51.879 50.926C51.6954 51.0237 51.5059 51.1565 51.3106 51.3245ZM62.045 50.4397V51.7405C62.045 52.4397 61.9825 53.0295 61.8575 53.51C61.7325 53.9905 61.5528 54.3772 61.3184 54.6702C61.084 54.9631 60.8008 55.176 60.4688 55.3088C60.1407 55.4377 59.7696 55.5022 59.3555 55.5022C59.0274 55.5022 58.7247 55.4612 58.4473 55.3792C58.17 55.2971 57.92 55.1663 57.6973 54.9866C57.4786 54.803 57.2911 54.5647 57.1348 54.2717C56.9786 53.9788 56.8594 53.6233 56.7774 53.2053C56.6954 52.7874 56.6544 52.2991 56.6544 51.7405V50.4397C56.6544 49.7405 56.7169 49.1545 56.8419 48.6819C56.9708 48.2092 57.1524 47.8303 57.3868 47.5452C57.6212 47.2561 57.9024 47.0491 58.2305 46.9241C58.5626 46.7991 58.9337 46.7366 59.3438 46.7366C59.6758 46.7366 59.9805 46.7776 60.2579 46.8596C60.5391 46.9377 60.7891 47.0647 61.0079 47.2405C61.2266 47.4124 61.4122 47.6428 61.5645 47.9319C61.7208 48.217 61.8399 48.5667 61.9219 48.9807C62.004 49.3948 62.045 49.8811 62.045 50.4397ZM60.9551 51.9163V50.2581C60.9551 49.8752 60.9317 49.5393 60.8848 49.2502C60.8419 48.9573 60.7774 48.7073 60.6915 48.5002C60.6055 48.2932 60.4962 48.1252 60.3633 47.9963C60.2344 47.8674 60.084 47.7737 59.9122 47.7151C59.7442 47.6526 59.5548 47.6213 59.3438 47.6213C59.086 47.6213 58.8575 47.6702 58.6583 47.7678C58.459 47.8616 58.2911 48.012 58.1544 48.219C58.0215 48.426 57.92 48.6975 57.8497 49.0334C57.7794 49.3694 57.7442 49.7776 57.7442 50.2581V51.9163C57.7442 52.2991 57.7657 52.637 57.8087 52.9299C57.8555 53.2229 57.9239 53.4768 58.0137 53.6917C58.1036 53.9026 58.213 54.0764 58.3419 54.2131C58.4708 54.3499 58.6192 54.4514 58.7872 54.5178C58.959 54.5803 59.1485 54.6116 59.3555 54.6116C59.6212 54.6116 59.8536 54.5608 60.0528 54.4592C60.252 54.3577 60.418 54.1995 60.5508 53.9846C60.6876 53.7659 60.7891 53.4866 60.8555 53.1467C60.9219 52.803 60.9551 52.3928 60.9551 51.9163Z" fill="black"/>
<path d="M68.5389 6.7251H75.509" stroke="black"/>
<path d="M40.002 -1.35034V7.22778H38.9181V0.00317383L36.7325 0.800049V-0.178467L39.8321 -1.35034H40.002ZM48.545 2.28247V3.58325C48.545 4.28247 48.4825 4.87231 48.3575 5.35278C48.2325 5.83325 48.0528 6.21997 47.8185 6.51294C47.5841 6.80591 47.3009 7.0188 46.9688 7.15161C46.6407 7.28052 46.2696 7.34497 45.8556 7.34497C45.5274 7.34497 45.2247 7.30396 44.9474 7.22192C44.67 7.13989 44.42 7.00903 44.1974 6.82935C43.9786 6.64575 43.7911 6.40747 43.6349 6.1145C43.4786 5.82153 43.3595 5.46606 43.2774 5.0481C43.1954 4.63013 43.1544 4.14185 43.1544 3.58325V2.28247C43.1544 1.58325 43.2169 0.997314 43.3419 0.524658C43.4708 0.052002 43.6524 -0.326904 43.8868 -0.612061C44.1212 -0.901123 44.4024 -1.10815 44.7306 -1.23315C45.0626 -1.35815 45.4337 -1.42065 45.8438 -1.42065C46.1759 -1.42065 46.4806 -1.37964 46.7579 -1.29761C47.0392 -1.21948 47.2892 -1.09253 47.5079 -0.916748C47.7267 -0.744873 47.9122 -0.514404 48.0645 -0.225342C48.2208 0.0598145 48.3399 0.409424 48.422 0.823486C48.504 1.23755 48.545 1.72388 48.545 2.28247ZM47.4552 3.75903V2.10083C47.4552 1.71802 47.4317 1.38208 47.3849 1.09302C47.3419 0.800049 47.2774 0.550049 47.1915 0.343018C47.1056 0.135986 46.9962 -0.0319824 46.8634 -0.160889C46.7345 -0.289795 46.5841 -0.383545 46.4122 -0.442139C46.2442 -0.504639 46.0548 -0.535889 45.8438 -0.535889C45.586 -0.535889 45.3575 -0.487061 45.1583 -0.389404C44.9591 -0.295654 44.7911 -0.145264 44.6544 0.0617676C44.5216 0.268799 44.42 0.540283 44.3497 0.876221C44.2794 1.21216 44.2442 1.62036 44.2442 2.10083V3.75903C44.2442 4.14185 44.2657 4.47974 44.3087 4.77271C44.3556 5.06567 44.4239 5.31958 44.5138 5.53442C44.6036 5.74536 44.713 5.91919 44.8419 6.05591C44.9708 6.19263 45.1192 6.29419 45.2872 6.3606C45.4591 6.4231 45.6485 6.45435 45.8556 6.45435C46.1212 6.45435 46.3536 6.40356 46.5528 6.302C46.752 6.20044 46.9181 6.04224 47.0509 5.82739C47.1876 5.60864 47.2892 5.32935 47.3556 4.9895C47.422 4.64575 47.4552 4.2356 47.4552 3.75903ZM55.295 2.28247V3.58325C55.295 4.28247 55.2325 4.87231 55.1075 5.35278C54.9825 5.83325 54.8028 6.21997 54.5685 6.51294C54.3341 6.80591 54.0509 7.0188 53.7188 7.15161C53.3907 7.28052 53.0196 7.34497 52.6056 7.34497C52.2774 7.34497 51.9747 7.30396 51.6974 7.22192C51.42 7.13989 51.17 7.00903 50.9474 6.82935C50.7286 6.64575 50.5411 6.40747 50.3849 6.1145C50.2286 5.82153 50.1095 5.46606 50.0274 5.0481C49.9454 4.63013 49.9044 4.14185 49.9044 3.58325V2.28247C49.9044 1.58325 49.9669 0.997314 50.0919 0.524658C50.2208 0.052002 50.4024 -0.326904 50.6368 -0.612061C50.8712 -0.901123 51.1524 -1.10815 51.4806 -1.23315C51.8126 -1.35815 52.1837 -1.42065 52.5938 -1.42065C52.9259 -1.42065 53.2306 -1.37964 53.5079 -1.29761C53.7892 -1.21948 54.0392 -1.09253 54.2579 -0.916748C54.4767 -0.744873 54.6622 -0.514404 54.8145 -0.225342C54.9708 0.0598145 55.0899 0.409424 55.172 0.823486C55.254 1.23755 55.295 1.72388 55.295 2.28247ZM54.2052 3.75903V2.10083C54.2052 1.71802 54.1817 1.38208 54.1349 1.09302C54.0919 0.800049 54.0274 0.550049 53.9415 0.343018C53.8556 0.135986 53.7462 -0.0319824 53.6134 -0.160889C53.4845 -0.289795 53.3341 -0.383545 53.1622 -0.442139C52.9942 -0.504639 52.8048 -0.535889 52.5938 -0.535889C52.336 -0.535889 52.1075 -0.487061 51.9083 -0.389404C51.7091 -0.295654 51.5411 -0.145264 51.4044 0.0617676C51.2716 0.268799 51.17 0.540283 51.0997 0.876221C51.0294 1.21216 50.9942 1.62036 50.9942 2.10083V3.75903C50.9942 4.14185 51.0157 4.47974 51.0587 4.77271C51.1056 5.06567 51.1739 5.31958 51.2638 5.53442C51.3536 5.74536 51.463 5.91919 51.5919 6.05591C51.7208 6.19263 51.8692 6.29419 52.0372 6.3606C52.2091 6.4231 52.3985 6.45435 52.6056 6.45435C52.8712 6.45435 53.1036 6.40356 53.3028 6.302C53.502 6.20044 53.6681 6.04224 53.8009 5.82739C53.9376 5.60864 54.0392 5.32935 54.1056 4.9895C54.172 4.64575 54.2052 4.2356 54.2052 3.75903ZM62.045 2.28247V3.58325C62.045 4.28247 61.9825 4.87231 61.8575 5.35278C61.7325 5.83325 61.5528 6.21997 61.3185 6.51294C61.0841 6.80591 60.8009 7.0188 60.4688 7.15161C60.1407 7.28052 59.7696 7.34497 59.3556 7.34497C59.0274 7.34497 58.7247 7.30396 58.4474 7.22192C58.17 7.13989 57.92 7.00903 57.6974 6.82935C57.4786 6.64575 57.2911 6.40747 57.1349 6.1145C56.9786 5.82153 56.8595 5.46606 56.7774 5.0481C56.6954 4.63013 56.6544 4.14185 56.6544 3.58325V2.28247C56.6544 1.58325 56.7169 0.997314 56.8419 0.524658C56.9708 0.052002 57.1524 -0.326904 57.3868 -0.612061C57.6212 -0.901123 57.9024 -1.10815 58.2306 -1.23315C58.5626 -1.35815 58.9337 -1.42065 59.3438 -1.42065C59.6759 -1.42065 59.9806 -1.37964 60.2579 -1.29761C60.5392 -1.21948 60.7892 -1.09253 61.0079 -0.916748C61.2267 -0.744873 61.4122 -0.514404 61.5645 -0.225342C61.7208 0.0598145 61.8399 0.409424 61.922 0.823486C62.004 1.23755 62.045 1.72388 62.045 2.28247ZM60.9552 3.75903V2.10083C60.9552 1.71802 60.9317 1.38208 60.8849 1.09302C60.8419 0.800049 60.7774 0.550049 60.6915 0.343018C60.6056 0.135986 60.4962 -0.0319824 60.3634 -0.160889C60.2345 -0.289795 60.0841 -0.383545 59.9122 -0.442139C59.7442 -0.504639 59.5548 -0.535889 59.3438 -0.535889C59.086 -0.535889 58.8575 -0.487061 58.6583 -0.389404C58.4591 -0.295654 58.2911 -0.145264 58.1544 0.0617676C58.0216 0.268799 57.92 0.540283 57.8497 0.876221C57.7794 1.21216 57.7442 1.62036 57.7442 2.10083V3.75903C57.7442 4.14185 57.7657 4.47974 57.8087 4.77271C57.8556 5.06567 57.9239 5.31958 58.0138 5.53442C58.1036 5.74536 58.213 5.91919 58.3419 6.05591C58.4708 6.19263 58.6192 6.29419 58.7872 6.3606C58.9591 6.4231 59.1485 6.45435 59.3556 6.45435C59.6212 6.45435 59.8536 6.40356 60.0528 6.302C60.252 6.20044 60.4181 6.04224 60.5509 5.82739C60.6876 5.60864 60.7892 5.32935 60.8556 4.9895C60.922 4.64575 60.9552 4.2356 60.9552 3.75903Z" fill="black"/>
<path d="M75.509 143.592L152.696 197.607L229.883 18.5609L307.07 182.974L384.257 17.0545L461.444 58.5881L538.631 8.01611L615.818 201.266L693.005 205.355L770.192 174.151V221.925H693.005H615.818H538.631H461.444H384.257H307.07H229.883H152.696H75.509V143.592Z" fill="#6584F2" fill-opacity="0.6"/>
<path d="M75.509 147.627C77.4337 147.627 78.994 145.821 78.994 143.592C78.994 141.364 77.4337 139.557 75.509 139.557C73.5842 139.557 72.0239 141.364 72.0239 143.592C72.0239 145.821 73.5842 147.627 75.509 147.627Z" fill="#6584F2" fill-opacity="0.6"/>
<path d="M152.696 201.642C154.621 201.642 156.181 199.836 156.181 197.607C156.181 195.379 154.621 193.572 152.696 193.572C150.771 193.572 149.211 195.379 149.211 197.607C149.211 199.836 150.771 201.642 152.696 201.642Z" fill="#6584F2" fill-opacity="0.6"/>
<path d="M229.883 22.5961C231.808 22.5961 233.368 20.7896 233.368 18.5611C233.368 16.3327 231.808 14.5261 229.883 14.5261C227.958 14.5261 226.398 16.3327 226.398 18.5611C226.398 20.7896 227.958 22.5961 229.883 22.5961Z" fill="#6584F2" fill-opacity="0.6"/>
<path d="M307.07 187.009C308.995 187.009 310.555 185.202 310.555 182.974C310.555 180.745 308.995 178.939 307.07 178.939C305.145 178.939 303.585 180.745 303.585 182.974C303.585 185.202 305.145 187.009 307.07 187.009Z" fill="#6584F2" fill-opacity="0.6"/>
<path d="M384.257 21.0895C386.182 21.0895 387.742 19.283 387.742 17.0545C387.742 14.8261 386.182 13.0195 384.257 13.0195C382.332 13.0195 380.772 14.8261 380.772 17.0545C380.772 19.283 382.332 21.0895 384.257 21.0895Z" fill="#6584F2" fill-opacity="0.6"/>
<path d="M461.444 62.6232C463.368 62.6232 464.929 60.8167 464.929 58.5882C464.929 56.3598 463.368 54.5532 461.444 54.5532C459.519 54.5532 457.959 56.3598 457.959 58.5882C457.959 60.8167 459.519 62.6232 461.444 62.6232Z" fill="#6584F2" fill-opacity="0.6"/>
<path d="M538.631 12.0512C540.555 12.0512 542.116 10.2447 542.116 8.0162C542.116 5.78773 540.555 3.9812 538.631 3.9812C536.706 3.9812 535.146 5.78773 535.146 8.0162C535.146 10.2447 536.706 12.0512 538.631 12.0512Z" fill="#6584F2" fill-opacity="0.6"/>
<path d="M615.818 205.301C617.742 205.301 619.303 203.494 619.303 201.266C619.303 199.037 617.742 197.231 615.818 197.231C613.893 197.231 612.333 199.037 612.333 201.266C612.333 203.494 613.893 205.301 615.818 205.301Z" fill="#6584F2" fill-opacity="0.6"/>
<path d="M693.005 209.39C694.929 209.39 696.49 207.583 696.49 205.355C696.49 203.126 694.929 201.32 693.005 201.32C691.08 201.32 689.52 203.126 689.52 205.355C689.52 207.583 691.08 209.39 693.005 209.39Z" fill="#6584F2" fill-opacity="0.6"/>
<path d="M770.192 178.186C772.116 178.186 773.677 176.379 773.677 174.151C773.677 171.922 772.116 170.116 770.192 170.116C768.267 170.116 766.706 171.922 766.706 174.151C766.706 176.379 768.267 178.186 770.192 178.186Z" fill="#6584F2" fill-opacity="0.6"/>
<path d="M75.509 210.089L152.696 169.416L229.883 16.1936L307.07 62.2464L384.257 32.9792L461.444 127.452L538.631 11.0288L615.818 73.4368L693.005 96.8936L770.192 129.174V221.925H693.005H615.818H538.631H461.444H384.257H307.07H229.883H152.696H75.509V210.089Z" fill="#6E234B" fill-opacity="0.6"/>
<path d="M75.509 214.124C77.4337 214.124 78.994 212.317 78.994 210.089C78.994 207.86 77.4337 206.054 75.509 206.054C73.5842 206.054 72.0239 207.86 72.0239 210.089C72.0239 212.317 73.5842 214.124 75.509 214.124Z" fill="#6E234B" fill-opacity="0.6"/>
<path d="M152.696 173.451C154.621 173.451 156.181 171.645 156.181 169.416C156.181 167.188 154.621 165.381 152.696 165.381C150.771 165.381 149.211 167.188 149.211 169.416C149.211 171.645 150.771 173.451 152.696 173.451Z" fill="#6E234B" fill-opacity="0.6"/>
<path d="M229.883 20.2287C231.808 20.2287 233.368 18.4222 233.368 16.1937C233.368 13.9652 231.808 12.1587 229.883 12.1587C227.958 12.1587 226.398 13.9652 226.398 16.1937C226.398 18.4222 227.958 20.2287 229.883 20.2287Z" fill="#6E234B" fill-opacity="0.6"/>
<path d="M307.07 66.2814C308.995 66.2814 310.555 64.4749 310.555 62.2464C310.555 60.018 308.995 58.2114 307.07 58.2114C305.145 58.2114 303.585 60.018 303.585 62.2464C303.585 64.4749 305.145 66.2814 307.07 66.2814Z" fill="#6E234B" fill-opacity="0.6"/>
<path d="M384.257 37.0143C386.182 37.0143 387.742 35.2078 387.742 32.9793C387.742 30.7509 386.182 28.9443 384.257 28.9443C382.332 28.9443 380.772 30.7509 380.772 32.9793C380.772 35.2078 382.332 37.0143 384.257 37.0143Z" fill="#6E234B" fill-opacity="0.6"/>
<path d="M461.444 131.487C463.368 131.487 464.929 129.68 464.929 127.452C464.929 125.224 463.368 123.417 461.444 123.417C459.519 123.417 457.959 125.224 457.959 127.452C457.959 129.68 459.519 131.487 461.444 131.487Z" fill="#6E234B" fill-opacity="0.6"/>
<path d="M538.631 15.0639C540.555 15.0639 542.116 13.2574 542.116 11.0289C542.116 8.80043 540.555 6.9939 538.631 6.9939C536.706 6.9939 535.146 8.80043 535.146 11.0289C535.146 13.2574 536.706 15.0639 538.631 15.0639Z" fill="#6E234B" fill-opacity="0.6"/>
<path d="M615.818 77.4719C617.742 77.4719 619.303 75.6653 619.303 73.4369C619.303 71.2084 617.742 69.4019 615.818 69.4019C613.893 69.4019 612.333 71.2084 612.333 73.4369C612.333 75.6653 613.893 77.4719 615.818 77.4719Z" fill="#6E234B" fill-opacity="0.6"/>
<path d="M693.005 100.929C694.929 100.929 696.49 99.1221 696.49 96.8936C696.49 94.6652 694.929 92.8586 693.005 92.8586C691.08 92.8586 689.52 94.6652 689.52 96.8936C689.52 99.1221 691.08 100.929 693.005 100.929Z" fill="#6E234B" fill-opacity="0.6"/>
<path d="M770.192 133.209C772.116 133.209 773.677 131.402 773.677 129.174C773.677 126.945 772.116 125.139 770.192 125.139C768.267 125.139 766.706 126.945 766.706 129.174C766.706 131.402 768.267 133.209 770.192 133.209Z" fill="#6E234B" fill-opacity="0.6"/>
</g>
<defs>
<clipPath id="clip0_23_509">
<rect width="776" height="269" fill="white"/>
</clipPath>
</defs>
</svg>
